<?xml version="1.0" encoding="utf-8"?>
<!-- Generator: Adobe Illustrator 17.1.0, SVG Export Plug-In . SVG Version: 6.00 Build 0)  -->
<!DOCTYPE svg PUBLIC "-//W3C//DTD SVG 1.1//EN" "http://www.w3.org/Graphics/SVG/1.1/DTD/svg11.dtd">
<svg version="1.1" id="Capa_1" xmlns="http://www.w3.org/2000/svg" xmlns:xlink="http://www.w3.org/1999/xlink" x="0px" y="0px"
	 viewBox="0 0 1080 1506" enable-background="new 0 0 1080 1506" xml:space="preserve">
<g id="Close">
	<path d="M668.4,753l385.1-385.1c35.4-35.4,35.4-92.9,0-128.4c-35.4-35.4-92.9-35.4-128.4,0L540,624.7L154.9,239.6
		c-35.4-35.4-92.9-35.4-128.4,0c-35.4,35.4-35.4,92.9,0,128.4L411.6,753L26.6,1138.1c-35.4,35.4-35.4,92.9,0,128.4
		c35.4,35.4,92.9,35.4,128.4,0L540,881.3l385.1,385.1c35.4,35.4,92.9,35.4,128.4,0c35.4-35.4,35.4-92.9,0-128.4L668.4,753z"/>
</g>
</svg>
